<?xml version="1.0" standalone="no"?>
<!DOCTYPE svg PUBLIC "-//W3C//DTD SVG 20010904//EN"
 "http://www.w3.org/TR/2001/REC-SVG-20010904/DTD/svg10.dtd">
<svg version="1.0" xmlns="http://www.w3.org/2000/svg"
 width="16.000000pt" height="16.000000pt" viewBox="0 0 16.000000 16.000000"
 preserveAspectRatio="xMidYMid meet">
<metadata>
Created by potrace 1.11, written by Peter Selinger 2001-2013
</metadata>
<g transform="translate(0.000000,16.000000) scale(0.006154,-0.006154)"
fill="#000000" stroke="none">
<path d="M1235 2585 c-82 -44 -97 -79 -97 -221 0 -161 18 -203 105 -239 84
-35 184 15 212 105 15 47 9 244 -9 278 -38 74 -145 112 -211 77z"/>
<path d="M435 2254 c-38 -16 -79 -60 -92 -99 -13 -40 -9 -100 10 -128 27 -40
157 -167 189 -183 40 -21 125 -15 161 12 63 47 86 147 48 210 -21 34 -141 157
-177 180 -29 19 -102 23 -139 8z"/>
<path d="M2065 2262 c-31 -7 -61 -30 -132 -101 -85 -85 -103 -114 -103 -174 0
-122 143 -201 243 -133 37 25 150 137 173 171 18 27 23 93 11 130 -25 76 -113
125 -192 107z"/>
<path d="M1168 1935 c-169 -36 -312 -133 -407 -275 -46 -68 -68 -117 -91 -205
-26 -97 -21 -254 11 -350 94 -287 370 -474 664 -451 282 21 511 212 583 486
33 124 22 302 -23 394 -8 16 -15 33 -15 39 0 18 -91 147 -133 188 -153 150
-383 218 -589 174z m259 -251 c314 -105 377 -529 106 -715 -121 -83 -304 -96
-415 -29 -18 11 -42 24 -53 29 -46 21 -119 120 -146 197 -37 104 -30 214 19
316 85 175 301 265 489 202z"/>
<path d="M154 1459 c-63 -8 -87 -20 -117 -62 -33 -43 -40 -71 -32 -123 8 -55
52 -108 103 -125 40 -13 224 -16 263 -4 124 39 155 210 50 284 -43 31 -155 43
-267 30z"/>
<path d="M2251 1458 c-169 -29 -185 -261 -21 -313 43 -14 234 -8 272 8 20 8
48 32 64 53 24 31 29 47 29 94 0 47 -5 63 -28 93 -42 55 -74 67 -181 70 -52 1
-113 -1 -135 -5z"/>
<path d="M538 754 c-29 -15 -160 -144 -184 -180 -18 -26 -24 -102 -10 -134 35
-86 138 -130 216 -91 40 20 163 140 191 185 42 68 12 174 -61 215 -44 25 -112
27 -152 5z"/>
<path d="M1909 748 c-72 -41 -101 -146 -60 -214 20 -34 141 -157 177 -180 27
-18 91 -24 129 -11 84 28 133 131 100 211 -16 37 -141 168 -188 196 -43 26
-111 26 -158 -2z"/>
<path d="M1234 471 c-42 -19 -75 -57 -89 -101 -4 -14 -8 -72 -8 -130 1 -124
14 -165 69 -206 31 -24 47 -29 94 -29 47 1 64 6 95 29 54 42 67 82 68 207 0
58 -4 116 -8 130 -29 93 -132 140 -221 100z"/>
</g>
</svg>
